<svg width="340" height="65" viewBox="0 0 340 65" fill="none" xmlns="http://www.w3.org/2000/svg">
<path d="M17.6286 0.804756C17.4 -0.363563 21.3875 1.5921 21.6839 1.74449H40.2669C41.1897 1.65136 41.376 -0.278903 42.5697 0.0343424C43.6787 0.550774 44.8725 1.04181 45.5582 1.65136C47.0144 2.95514 44.8047 3.02287 44.8047 3.67476V23.824C44.8047 27.71 42.3496 27.2105 40.5209 27.2105C40.3008 27.2105 39.9198 26.8972 39.7674 26.7787C39.0393 26.2199 37.5916 25.7543 36.6688 25.2887C36.0085 24.9416 36.3471 24.4167 36.8551 24.4844C37.8287 24.4421 40.9273 25.1532 41.1051 24.095V2.85355C41.0289 2.69269 41.0204 2.71809 40.9103 2.75196H21.4468V25.3395C21.4468 27.8116 17.6371 27.7523 17.6371 25.966V0.804756H17.6286Z" fill="white"/>
<path d="M38.6931 13.1233C37.855 12.573 36.9491 11.7941 35.5183 11.4131C34.5786 11.1422 34.841 13.1233 33.9182 13.1233H28.2883C28.0343 13.0132 24.3516 10.939 24.3516 12.446V21.818C24.3516 23.435 28.2121 23.1556 28.2121 21.4031V21.0899H34.2484V21.0645C34.2484 23.0032 37.9904 22.3175 37.9904 20.9121V14.6472C37.9904 14.4101 39.9376 13.9276 38.7016 13.1318L38.6931 13.1233ZM34.5617 19.8454H28.2036V14.1223L34.5617 14.08V19.8369V19.8454Z" fill="white"/>
<path d="M23.8345 8.91494C23.0726 9.18586 22.463 7.27252 23.5128 7.42491C24.8504 7.56884 25.1129 7.6027 26.0018 7.64503H33.8668C34.0954 7.64503 34.3155 7.61117 34.3409 7.42491C34.578 4.76656 35.5939 4.91049 39.3698 7.83975C39.9539 8.30539 39.3952 8.66096 38.7941 8.66096H26.3489C25.333 8.68636 24.7912 8.77102 23.826 8.90648L23.8345 8.91494Z" fill="white"/>
<path d="M2.88944 34.1011C3.22808 33.61 4.9467 33.7116 5.41233 33.5508C5.8695 33.373 9.98402 33.1613 10.6867 33.1613C11.3894 33.1613 13.0318 33.0682 13.3789 32.865C13.7006 32.6703 15.5716 32.5941 16.7146 32.5179C17.849 32.4332 19.2205 32.2978 20.6005 32.2978C21.9805 32.2978 24.3002 31.3157 25.6801 30.994C27.0601 30.6638 27.8475 29.9781 29.7439 29.5886C31.6149 29.1992 35.7548 30.0712 36.9739 30.2829C38.193 30.503 40.826 30.6977 41.7996 30.994C42.7647 31.2903 43.3404 31.6882 44.1447 31.6036C44.932 31.502 47.8697 31.6374 48.4116 31.8999C48.9534 32.1369 50.7905 32.4417 51.671 32.2893C52.56 32.1115 55.0744 32.2385 56.1919 32.3909C57.3264 32.5687 57.7666 33.1529 58.1222 33.4322C58.4608 33.7201 58.2576 34.2619 57.7666 34.3212C57.3348 34.3635 54.9559 34.2196 54.0246 34.1349C53.1018 34.0672 47.5819 34.1095 46.7945 33.8979C45.9733 33.6778 42.0705 33.61 41.3847 33.7201C40.7159 33.8048 36.3474 33.7201 35.7548 33.6862C35.1875 33.6185 34.5526 33.5677 34.0108 33.1783C33.4605 32.7973 31.6657 33.1613 30.6159 33.2714C29.5745 33.3899 27.1786 33.5169 26.095 33.7455C25.0028 34.0164 18.1877 34.5328 17.5442 34.5328C16.9008 34.5328 16.2066 35.3033 12.5238 35.0831C8.84956 34.9053 10.8645 35.4302 8.09608 35.2017C5.32767 35.0154 4.70118 35.5996 4.40487 35.6758C4.10855 35.7689 3.22808 35.8028 2.94023 35.5064C2.64392 35.2017 2.88944 34.118 2.88944 34.118V34.1011Z" fill="white"/>
<path d="M7.79127 53.5057C6.56369 53.4465 5.11599 53.3703 4.44717 52.9385C3.76142 52.5406 1.38245 53.3788 0.713628 53.5227C0.0363414 53.7089 -0.124514 53.2518 0.0871379 52.9808C0.290324 52.7353 1.80575 50.8559 1.86502 49.8738C1.96661 48.9171 2.5931 48.57 2.98254 48.1721C3.34658 47.825 2.84708 47.1308 3.13493 46.9022C3.43124 46.6905 4.59109 45.3952 4.64189 44.8703C4.68422 44.3708 5.42924 43.1263 5.77635 42.7623C6.11499 42.3559 6.68222 41.2299 6.72455 40.8405C6.78381 40.4595 7.31717 39.3589 7.57116 37.2847C7.57116 37.2847 7.81667 36.98 8.48549 36.8106C9.17125 36.6582 9.57762 36.4043 9.73847 36.4466C9.92473 36.472 10.221 37.1069 10.221 37.4202C10.221 37.6826 10.4242 40.2309 11.0423 41.6194C11.6687 43.0163 12.1767 45.1497 12.2529 45.4376C12.346 45.7339 12.9048 47.1816 13.0741 47.461C13.3027 47.7573 13.6075 49.0018 13.6075 49.2812C13.6075 49.6029 14.7165 51.186 15.106 51.5501C15.4785 51.9395 16.1134 53.201 14.9451 53.4549C13.7683 53.7174 11.9989 53.5142 11.1692 53.2602C10.3396 52.9978 8.99346 53.5311 7.78281 53.5142L7.79127 53.5057Z" fill="white"/>
<path d="M31.9876 44.9125C31.9283 45.175 31.886 46.1147 31.5981 46.5295C31.3272 46.9782 31.2341 49.0609 30.997 49.5858C30.8023 50.0853 29.6424 51.9648 29.3631 52.5489C29.0752 53.1754 28.0085 55.4951 27.4074 56.2571C26.7978 56.9936 25.2739 59.0593 24.876 59.6096C24.4866 60.1599 23.4199 62.3442 21.7859 63.0299C20.135 63.7241 19.2122 63.8681 18.0354 64.2406C16.8587 64.5877 16.5454 64.8078 15.3348 64.52C14.1241 64.2406 13.7262 64.1221 13.413 64.1221C13.0743 64.1221 12.8034 63.4702 12.8627 62.9876C12.9389 62.4627 12.5918 61.7008 13.6246 61.4552C14.6575 61.2097 16.3592 61.1674 16.6639 60.6086C16.9518 60.1007 20.0758 57.6709 20.8885 56.5703C21.7097 55.402 24.8676 52.9976 25.4433 51.9732C26.0613 50.915 26.874 47.8672 27.3481 47.1899C27.8053 46.5211 28.2286 43.8458 28.8382 42.923C29.4393 42.034 29.1514 39.4265 29.016 39.0116C28.872 38.5799 27.7376 37.42 26.5947 36.7681C26.5947 36.7681 26.0698 36.0147 26.9672 35.7183C27.8392 35.4474 28.3641 35.3035 28.8805 35.4644C29.3715 35.6252 30.379 35.8115 30.616 36.0401C30.8785 36.2686 31.505 35.93 31.9452 36.2178C32.3685 36.4888 33.2829 37.0306 33.4437 37.7333C33.6215 38.4106 33.376 41.4668 33.0881 42.1526C32.8003 42.8383 32.0891 44.667 32.013 44.921L31.9876 44.9125Z" fill="white"/>
<path d="M51.3743 63.9109C50.8325 64.4104 50.2568 64.5882 49.7065 64.5458C49.1392 64.5204 48.208 64.385 47.573 64.1225C46.9211 63.877 46.1423 63.7246 45.7105 63.7754C45.2872 63.8262 44.4321 63.4283 44.4321 63.0389C44.4321 62.7002 44.1781 61.6335 43.5601 61.2441C42.959 60.8462 41.5706 59.6778 41.0033 58.9328C40.4276 58.2217 39.2932 56.9941 39.2001 56.7062C39.09 56.4015 37.7947 54.6998 37.727 54.2003C37.6592 53.7092 36.7618 52.3293 36.5417 52.0414C36.3216 51.7705 35.5427 50.4413 35.5258 50.2551C35.4835 50.1027 34.4421 48.8328 34.2643 48.5195C34.0866 48.1724 34.0865 47.0803 33.8834 46.8348C33.6717 46.5977 33.1722 45.3786 33.1299 44.7606C33.1299 44.7606 33.1722 43.9817 33.7394 44.151C34.3151 44.3542 34.7046 44.405 34.9586 44.5235C35.1956 44.6336 36.1269 45.2432 36.22 45.9543C36.3216 46.6909 36.6518 47.4189 36.838 47.656C37.0073 47.91 37.3714 48.3756 37.7608 48.7143C38.1503 49.0275 38.8106 49.5609 39.1916 50.162C39.5387 50.7546 39.8604 51.0932 40.1144 51.7028C40.3684 52.3208 40.8171 53.0489 41.1811 53.4129C41.5282 53.7431 42.595 54.9792 42.6373 55.2924C42.6712 55.5803 42.7558 56.2321 43.3738 56.5708C44.0257 56.884 44.3728 57.3497 44.8808 57.5698C45.4311 57.773 46.2438 57.9592 46.4894 58.2386C46.7179 58.5434 47.2259 58.9498 47.8016 59.263C48.3688 59.5508 49.8335 60.2027 50.3753 60.9223C50.8833 61.642 51.0018 62.1923 51.1796 62.624C51.3658 63.0389 51.9077 63.4283 51.3658 63.9193L51.3743 63.9109Z" fill="white"/>
<path d="M62.6011 52.9896C61.8815 52.9388 61.0941 52.8118 59.9597 52.5494C58.8252 52.3039 56.1838 52.5494 55.0578 52.5409C53.9233 52.4732 51.8745 52.1261 51.0872 52.1769C50.266 52.2107 48.7506 52.4732 48.522 52.7356C48.3188 52.9812 46.6764 53.1928 46.4647 52.7356C46.2531 52.27 46.3885 51.5927 46.8796 50.78C47.3875 49.9672 47.65 47.9523 48.1833 47.1734C48.7421 46.403 48.9368 44.7521 49.267 43.8209C49.6056 42.8811 50.4014 40.2228 50.774 39.7656C51.1634 39.3508 51.7899 38.4026 51.3666 36.2183C51.3666 36.2183 51.6968 35.2532 52.1624 35.3632C52.6196 35.4818 53.627 35.7019 53.7455 36.0998C53.8725 36.5654 54.008 38.6311 54.5075 39.3508C55.007 40.0704 55.2694 40.5529 55.642 40.8662C56.0229 41.2302 57.5214 43.0589 57.9532 44.0325C58.3765 45.0146 58.0294 44.6759 58.2495 44.9638C58.4527 45.2686 59.003 45.8273 59.2993 46.2506C59.5787 46.6655 60.1374 47.6814 60.1628 48.1301C60.2136 48.6042 61.0856 50.0519 61.4158 50.4329C61.7714 50.8223 62.7281 52.0668 62.9905 52.2785C63.2276 52.4732 63.3038 53.0235 62.6011 52.9896Z" fill="white"/>
<path d="M103.974 24.2905C103.974 24.9593 103.246 25.154 102.078 25.154C100.91 25.154 100.182 24.9593 100.182 24.2905V19.6257H95.7199V22.2756C95.7199 23.5878 95.0765 24.4005 93.7389 24.4005H86.4834C85.73 24.4005 84.8664 23.7825 84.2484 23.1476C83.6304 22.5634 83.0801 21.7507 83.0801 21.2258V12.184H86.7967V15.1979H92.0118V12.184H95.7284V16.4255H100.19V11.9639H103.983V24.2989L103.974 24.2905ZM86.7798 20.8533C86.7798 21.1326 86.9152 21.2766 87.1438 21.2766H92.0033V18.3134H86.7882V20.8533H86.7798ZM90.7673 37.6584C90.0138 37.6584 89.1503 37.0489 88.5322 36.4054C87.9142 35.8213 87.3639 35.0085 87.3639 34.4837V26.5001H91.1313V29.04H99.8937V26.5001H103.661V35.6266C103.661 36.9134 103.018 37.6669 101.655 37.6669H90.7673V37.6584ZM99.8937 34.5006V32.1301H91.1313V34.0857C91.1313 34.3651 91.2668 34.509 91.4954 34.509H99.8937V34.5006Z" fill="white"/>
<path d="M130.464 26.3801C131.217 26.3801 131.328 26.9643 131.328 28.031C131.328 29.0978 131.217 29.6481 130.464 29.6481H121.143V35.896C121.143 36.5394 120.449 36.7088 119.187 36.7088C118.019 36.7088 117.291 36.5648 117.291 35.9299V29.6481H107.352V26.3801H130.464ZM114.167 23.8149C113.473 23.8149 112.44 23.0614 111.847 22.4434C111.263 21.8593 110.679 21.0804 110.679 20.5724V13.0376H127.729V21.7153C127.729 23.0276 127.111 23.8065 125.774 23.8065H114.167V23.8149ZM114.531 19.9883C114.531 20.4624 114.726 20.5978 115.2 20.5978H123.877V16.2462H114.531V19.9883Z" fill="white"/>
<path d="M154.508 24.2905C154.508 24.9593 153.779 25.154 152.611 25.154C151.443 25.154 150.715 24.9593 150.715 24.2905V19.6257H146.253V22.2756C146.253 23.5878 145.61 24.4005 144.272 24.4005H137.017C136.263 24.4005 135.4 23.7825 134.782 23.1476C134.164 22.5634 133.613 21.7507 133.613 21.2258V12.184H137.321V15.1979H142.545V12.184H146.253V16.4255H150.715V11.9639H154.508V24.2989V24.2905ZM137.313 20.8533C137.313 21.1326 137.457 21.2766 137.677 21.2766H142.537V18.3134H137.313V20.8533ZM141.3 37.6584C140.547 37.6584 139.683 37.0489 139.065 36.4054C138.447 35.8213 137.897 35.0085 137.897 34.4837V26.5001H141.665V29.04H150.427V26.5001H154.194V35.6266C154.194 36.9134 153.551 37.6669 152.188 37.6669H141.3V37.6584ZM150.427 34.5006V32.1301H141.665V34.0857C141.665 34.3651 141.8 34.509 142.029 34.509H150.427V34.5006Z" fill="white"/>
<path d="M157.86 19.0995C157.86 15.5014 160.934 12.5975 164.752 12.5975C168.57 12.5975 171.618 15.5014 171.618 19.0995C171.618 22.6976 168.578 25.576 164.752 25.576C160.925 25.576 157.86 22.6722 157.86 19.0995ZM161.552 19.0995C161.552 20.8858 162.779 22.3928 164.76 22.3928C166.741 22.3928 167.943 20.8858 167.943 19.0995C167.943 17.3131 166.741 15.7808 164.76 15.7808C162.779 15.7808 161.552 17.3131 161.552 19.0995ZM179.186 34.2199C179.804 34.2199 179.914 34.8633 179.914 35.8115C179.914 36.8444 179.804 37.3777 179.186 37.3777H166.547C165.818 37.3777 164.819 36.7089 164.227 36.0909C163.609 35.5067 163.059 34.6432 163.059 34.1098V28.1666H166.851V33.6103C166.851 34.0336 167.071 34.2284 167.495 34.2284H179.186V34.2199ZM179.356 28.9201C179.356 29.6482 178.492 29.7583 177.459 29.7583C176.257 29.7583 175.563 29.5636 175.563 28.9201V11.9541H179.356V28.9201Z" fill="white"/>
<path d="M190.693 10.6421C188.822 13.656 187.399 19.3537 187.399 24.3995C187.399 29.4453 188.847 34.8974 190.693 37.9367H187.061C185.418 35.5662 183.683 29.7839 183.683 24.3995C183.683 19.015 185.444 13.0634 187.086 10.6421H190.684H190.693Z" fill="white"/>
<path d="M215.201 26.3812C215.955 26.3812 216.065 26.9654 216.065 28.0321C216.065 29.0989 215.955 29.6491 215.201 29.6491H210.536V35.8971C210.536 36.5405 209.868 36.7099 208.615 36.7099C207.446 36.7099 206.744 36.5659 206.744 35.931V29.6491H201.325V35.8971C201.325 36.5405 200.657 36.7099 199.404 36.7099C198.235 36.7099 197.533 36.5659 197.533 35.931V29.6491H192.089V26.3812H215.201ZM203.958 24.6203C199.827 24.6203 196.195 22.1905 196.195 18.0929C196.195 13.9954 199.827 11.5571 203.958 11.5571C208.09 11.5571 211.722 13.9869 211.722 18.0929C211.722 22.199 208.09 24.6203 203.958 24.6203ZM203.958 14.7742C201.808 14.7742 200.047 16.0018 200.047 18.0929C200.047 20.1841 201.808 21.4116 203.958 21.4116C206.109 21.4116 207.87 20.1841 207.87 18.0929C207.87 16.0018 206.109 14.7742 203.958 14.7742Z" fill="white"/>
<path d="M231.956 14.0961C232.599 14.0961 232.709 14.5702 232.709 15.603C232.709 16.6359 232.599 17.1693 231.956 17.1693H217.919V14.0961H223.278V11.751H227.105V14.0961H231.964H231.956ZM225.234 18.0667C228.696 18.0667 231.177 20.4118 231.177 23.1717C231.177 25.9317 228.696 28.2768 225.234 28.2768C221.771 28.2768 219.29 25.9317 219.29 23.1717C219.29 20.4118 221.771 18.0667 225.234 18.0667ZM238.187 34.22C238.805 34.22 238.915 34.8634 238.915 35.8116C238.915 36.8444 238.805 37.3778 238.187 37.3778H225.598C224.87 37.3778 223.871 36.709 223.278 36.091C222.66 35.5068 222.11 34.6433 222.11 34.1099V29.5636H225.902V33.6104C225.902 34.0337 226.123 34.2284 226.546 34.2284H238.187V34.22ZM225.234 21.0806C223.752 21.0806 222.973 22.1135 222.973 23.1463C222.973 24.2384 223.752 25.2713 225.234 25.2713C226.715 25.2713 227.494 24.2384 227.494 23.1463C227.494 22.1135 226.715 21.0806 225.234 21.0806ZM238.407 29.479C238.407 30.207 237.543 30.3171 236.51 30.3171C235.308 30.3171 234.614 30.1224 234.614 29.479V11.9542H238.407V19.2096H242.623V22.4182H238.407V29.479Z" fill="white"/>
<path d="M246.764 10.6421C248.415 13.0719 250.167 18.905 250.167 24.3995C250.167 29.894 248.44 35.5662 246.789 37.9367H243.157C245.003 34.8974 246.451 29.3691 246.451 24.3995C246.451 19.4299 245.028 13.656 243.157 10.6421H246.755H246.764Z" fill="white"/>
<path d="M273.601 16.281V19.9891C273.601 20.6749 273.965 21.0389 274.609 21.0389H293.81C294.868 21.0389 295.046 21.8601 295.046 23.5618C295.046 25.2635 294.86 26.127 293.81 26.127H284.328V29.7929H299.634C300.87 29.7929 301.057 30.5717 301.057 32.3158C301.057 34.0598 300.87 34.7878 299.634 34.7878H261.689V29.7929H278.004V26.127H273.195C272.001 26.127 270.308 24.9841 269.3 23.9767C268.335 22.9692 267.379 21.5469 267.379 20.6326V11.1929H293.361C294.419 11.1929 294.597 12.0141 294.597 13.7158C294.597 15.4174 294.411 16.281 293.361 16.281H273.61H273.601ZM281.111 54.4038C274.922 54.4038 269.106 51.2882 269.106 45.5144C269.106 39.7405 274.922 36.625 281.111 36.625C287.299 36.625 293.116 39.7405 293.116 45.5144C293.116 51.2882 287.299 54.4038 281.111 54.4038ZM281.161 41.7131C277.724 41.7131 275.345 43.1777 275.345 45.5144C275.345 47.851 277.724 49.3156 281.161 49.3156C284.599 49.3156 286.893 47.851 286.893 45.5144C286.893 43.1777 284.514 41.7131 281.161 41.7131Z" fill="white"/>
<path d="M303.8 22.9689C303.8 17.0595 308.837 12.2931 315.119 12.2931C321.401 12.2931 326.396 17.0595 326.396 22.9689C326.396 28.8782 321.401 33.6023 315.119 33.6023C308.837 33.6023 303.8 28.8359 303.8 22.9689ZM309.845 22.9689C309.845 25.8981 311.86 28.3787 315.111 28.3787C318.361 28.3787 320.334 25.9066 320.334 22.9689C320.334 20.0311 318.361 17.5167 315.111 17.5167C311.86 17.5167 309.845 20.0396 309.845 22.9689ZM338.807 47.8083C339.815 47.8083 340.001 48.8666 340.001 50.4244C340.001 52.1176 339.815 52.9896 338.807 52.9896H318.048C316.855 52.9896 315.204 51.889 314.247 50.8815C313.239 49.9164 312.325 48.5026 312.325 47.6306V37.8692H318.556V46.8009C318.556 47.4866 318.92 47.8083 319.614 47.8083H338.816H338.807ZM339.086 39.0967C339.086 40.2905 337.664 40.4683 335.971 40.4683C333.998 40.4683 332.855 40.1465 332.855 39.0967V11.2349H339.086V39.0967Z" fill="white"/>
<path d="M95.2295 54.597V46.0039H98.9884C99.9197 46.0039 100.741 46.1817 101.444 46.5457C102.146 46.9098 102.697 47.4093 103.086 48.0442C103.475 48.6792 103.679 49.4327 103.679 50.3047C103.679 51.1767 103.484 51.9132 103.086 52.5567C102.697 53.2001 102.146 53.6996 101.444 54.0636C100.741 54.4277 99.9197 54.6054 98.9884 54.6054H95.2295V54.597ZM96.8211 53.2424H98.9038C99.5472 53.2424 100.106 53.1239 100.58 52.8699C101.054 52.6244 101.418 52.2773 101.672 51.837C101.926 51.3968 102.062 50.8804 102.062 50.2877C102.062 49.6951 101.935 49.1702 101.672 48.7385C101.418 48.2982 101.046 47.9596 100.58 47.7141C100.106 47.4685 99.5472 47.3415 98.9038 47.3415H96.8211V53.2339V53.2424Z" fill="white"/>
<path d="M110.003 54.6827C109.334 54.6827 108.733 54.5388 108.208 54.2509C107.683 53.9631 107.268 53.5652 106.972 53.0572C106.667 52.5492 106.515 51.9735 106.515 51.3301C106.515 50.6867 106.667 50.0941 106.972 49.5946C107.277 49.0951 107.691 48.6972 108.208 48.4093C108.733 48.1215 109.325 47.9775 110.003 47.9775C110.68 47.9775 111.29 48.1215 111.814 48.4093C112.339 48.6972 112.754 49.0866 113.05 49.5861C113.347 50.0856 113.499 50.6698 113.499 51.3301C113.499 51.9905 113.347 52.5577 113.05 53.0572C112.754 53.5652 112.339 53.9631 111.814 54.2509C111.29 54.5388 110.68 54.6827 110.003 54.6827ZM110.003 53.3704C110.375 53.3704 110.714 53.2858 111.01 53.1249C111.306 52.9641 111.535 52.727 111.704 52.4138C111.874 52.1005 111.958 51.7365 111.958 51.3216C111.958 50.9068 111.874 50.5258 111.704 50.2211C111.535 49.9163 111.306 49.6792 111.01 49.5184C110.714 49.3575 110.384 49.2728 110.02 49.2728C109.656 49.2728 109.308 49.3575 109.021 49.5184C108.733 49.6792 108.496 49.9163 108.326 50.2211C108.157 50.5258 108.072 50.8983 108.072 51.3216C108.072 51.7449 108.157 52.1005 108.326 52.4138C108.496 52.727 108.733 52.9641 109.021 53.1249C109.308 53.2858 109.639 53.3704 110.011 53.3704H110.003Z" fill="white"/>
<path d="M120.535 47.9688C121.06 47.9688 121.525 48.0703 121.94 48.2735C122.355 48.4767 122.677 48.79 122.914 49.2133C123.151 49.6366 123.269 50.1784 123.269 50.8388V54.5977H121.737V51.0419C121.737 50.4578 121.601 50.026 121.322 49.7382C121.051 49.4503 120.662 49.3064 120.171 49.3064C119.807 49.3064 119.493 49.3826 119.214 49.5265C118.935 49.6704 118.723 49.8906 118.571 50.1869C118.418 50.4747 118.342 50.8472 118.342 51.2875V54.5977H116.81V48.0449H118.274V49.8144L118.02 49.2725C118.249 48.8577 118.579 48.536 119.019 48.3074C119.459 48.0788 119.959 47.9688 120.535 47.9688Z" fill="white"/>
<path d="M129.855 54.3017C129.237 54.3017 128.67 54.1662 128.17 53.9038C127.671 53.6413 127.273 53.2688 126.977 52.7947C126.689 52.3206 126.545 51.7619 126.545 51.1269C126.545 50.492 126.689 49.9417 126.977 49.4676C127.265 48.9935 127.662 48.621 128.17 48.367C128.67 48.1045 129.237 47.9775 129.855 47.9775C130.414 47.9775 130.913 48.0876 131.354 48.3077C131.794 48.5278 132.149 48.8749 132.412 49.3406C132.674 49.8062 132.81 50.4073 132.81 51.1354C132.81 51.8635 132.674 52.4646 132.412 52.9302C132.149 53.3958 131.794 53.7514 131.354 53.9715C130.913 54.2001 130.414 54.3102 129.855 54.3102V54.3017ZM130.05 57.0616C129.44 57.0616 128.856 56.9854 128.272 56.8246C127.688 56.6637 127.222 56.4352 126.858 56.1304L127.544 54.979C127.832 55.216 128.196 55.4108 128.628 55.5462C129.059 55.6817 129.508 55.7579 129.957 55.7579C130.676 55.7579 131.201 55.5885 131.54 55.2584C131.879 54.9282 132.039 54.4287 132.039 53.7683V52.6L132.166 51.1185L132.116 49.6369V48.0368H133.58V53.599C133.58 54.7843 133.275 55.6563 132.674 56.2235C132.065 56.7823 131.193 57.0616 130.05 57.0616ZM130.084 52.9979C130.465 52.9979 130.812 52.9217 131.117 52.7609C131.421 52.6 131.658 52.3799 131.819 52.1005C131.98 51.8211 132.073 51.491 132.073 51.1269C132.073 50.7629 131.989 50.4327 131.819 50.1533C131.65 49.8739 131.413 49.6538 131.117 49.5014C130.812 49.349 130.473 49.2728 130.084 49.2728C129.694 49.2728 129.356 49.349 129.042 49.5014C128.738 49.6538 128.501 49.8739 128.331 50.1533C128.162 50.4327 128.077 50.7629 128.077 51.1269C128.077 51.491 128.162 51.8211 128.331 52.1005C128.501 52.3799 128.738 52.6 129.042 52.7609C129.347 52.9217 129.694 52.9979 130.084 52.9979Z" fill="white"/>
<path d="M137.584 54.597V46.0039H139.176V54.597H137.584Z" fill="white"/>
<path d="M146.915 47.9688C147.439 47.9688 147.905 48.0703 148.32 48.2735C148.735 48.4767 149.056 48.79 149.293 49.2133C149.531 49.6366 149.649 50.1784 149.649 50.8388V54.5977H148.117V51.0419C148.117 50.4578 147.981 50.026 147.702 49.7382C147.431 49.4503 147.042 49.3064 146.55 49.3064C146.186 49.3064 145.873 49.3826 145.594 49.5265C145.314 49.6704 145.103 49.8906 144.95 50.1869C144.798 50.4747 144.722 50.8472 144.722 51.2875V54.5977H143.189V48.0449H144.654V49.8144L144.4 49.2725C144.629 48.8577 144.959 48.536 145.399 48.3074C145.839 48.0788 146.339 47.9688 146.915 47.9688Z" fill="white"/>
<path d="M158.817 54.597V46.0039H160.409V53.2424H164.904V54.5885H158.817V54.597Z" fill="white"/>
<path d="M169.857 54.683C169.366 54.683 168.934 54.5983 168.57 54.429C168.206 54.2597 167.918 54.0311 167.715 53.7263C167.512 53.4216 167.41 53.0914 167.41 52.7104C167.41 52.3294 167.495 52.0077 167.673 51.7199C167.85 51.432 168.138 51.195 168.536 51.0172C168.934 50.8479 169.467 50.7547 170.128 50.7547H172.033V51.7707H170.238C169.713 51.7707 169.366 51.8553 169.18 52.0247C168.993 52.194 168.909 52.3972 168.909 52.6427C168.909 52.9221 169.019 53.1422 169.239 53.303C169.459 53.4639 169.764 53.5486 170.162 53.5486C170.56 53.5486 170.873 53.4639 171.178 53.2946C171.474 53.1252 171.694 52.8713 171.821 52.5326L172.075 53.4554C171.931 53.8449 171.66 54.1412 171.279 54.3528C170.898 54.5645 170.416 54.6745 169.84 54.6745L169.857 54.683ZM171.914 54.5983V53.2692L171.829 52.9898V50.6701C171.829 50.2214 171.694 49.8743 171.423 49.6203C171.152 49.3748 170.746 49.2478 170.195 49.2478C169.823 49.2478 169.467 49.307 169.112 49.4171C168.756 49.5272 168.451 49.688 168.206 49.8912L167.605 48.7737C167.96 48.5028 168.375 48.2996 168.866 48.1641C169.349 48.0287 169.857 47.9609 170.382 47.9609C171.33 47.9609 172.067 48.1895 172.583 48.6382C173.099 49.0954 173.362 49.7981 173.362 50.7463V54.5899H171.914V54.5983Z" fill="white"/>
<path d="M178.493 54.5982L176.089 48.0454H177.537L179.602 53.8277H178.917L181.075 48.0454H182.362L184.462 53.8277H183.785L185.91 48.0454H187.273L184.851 54.5982H183.378L181.465 49.4762H181.922L179.966 54.5982H178.493Z" fill="white"/>
<path d="M199.556 54.716C198.887 54.716 198.269 54.606 197.71 54.3943C197.151 54.1827 196.66 53.8694 196.246 53.4715C195.831 53.0736 195.509 52.608 195.272 52.0661C195.043 51.5243 194.925 50.9402 194.925 50.2967C194.925 49.6533 195.043 49.0692 195.272 48.5273C195.5 47.9855 195.822 47.5199 196.246 47.122C196.669 46.724 197.16 46.4193 197.727 46.1992C198.294 45.979 198.912 45.8774 199.581 45.8774C200.309 45.8774 200.97 45.996 201.554 46.233C202.138 46.4701 202.629 46.8172 203.035 47.2743L202.028 48.2564C201.689 47.9178 201.334 47.6723 200.944 47.5114C200.555 47.3505 200.131 47.2743 199.657 47.2743C199.183 47.2743 198.785 47.3505 198.404 47.4945C198.023 47.6384 197.685 47.85 197.414 48.121C197.134 48.3919 196.923 48.7136 196.77 49.0776C196.618 49.4417 196.542 49.848 196.542 50.2967C196.542 50.7454 196.618 51.1349 196.77 51.4989C196.923 51.8714 197.134 52.1847 197.414 52.4641C197.693 52.7434 198.023 52.9466 198.396 53.099C198.768 53.2429 199.192 53.3191 199.649 53.3191C200.072 53.3191 200.487 53.2514 200.885 53.1159C201.283 52.9805 201.664 52.7519 202.019 52.4387L202.925 53.6324C202.477 53.9964 201.952 54.2673 201.359 54.4536C200.766 54.6398 200.165 54.733 199.564 54.733L199.556 54.716ZM201.41 53.4207V50.2036H202.917V53.6239L201.41 53.4123V53.4207Z" fill="white"/>
<path d="M206.719 54.5977V48.0449H208.183V49.8482L208.014 49.3233C208.209 48.8831 208.522 48.5444 208.937 48.3159C209.36 48.0873 209.885 47.9688 210.512 47.9688V49.4249C210.444 49.408 210.385 49.3995 210.325 49.3911C210.266 49.3911 210.207 49.3911 210.156 49.3911C209.572 49.3911 209.115 49.5604 208.768 49.899C208.42 50.2377 208.251 50.7456 208.251 51.4144V54.5892H206.719V54.5977Z" fill="white"/>
<path d="M216.54 54.6827C215.871 54.6827 215.27 54.5388 214.745 54.2509C214.22 53.9631 213.805 53.5652 213.509 53.0572C213.204 52.5492 213.052 51.9735 213.052 51.3301C213.052 50.6867 213.204 50.0941 213.509 49.5946C213.814 49.0951 214.229 48.6972 214.745 48.4093C215.27 48.1215 215.863 47.9775 216.54 47.9775C217.217 47.9775 217.827 48.1215 218.352 48.4093C218.876 48.6972 219.291 49.0866 219.588 49.5861C219.884 50.0856 220.036 50.6698 220.036 51.3301C220.036 51.9905 219.884 52.5577 219.588 53.0572C219.291 53.5652 218.876 53.9631 218.352 54.2509C217.827 54.5388 217.217 54.6827 216.54 54.6827ZM216.54 53.3704C216.912 53.3704 217.251 53.2858 217.547 53.1249C217.844 52.9641 218.072 52.727 218.241 52.4138C218.411 52.1005 218.495 51.7365 218.495 51.3216C218.495 50.9068 218.411 50.5258 218.241 50.2211C218.072 49.9163 217.844 49.6792 217.547 49.5184C217.251 49.3575 216.921 49.2728 216.557 49.2728C216.193 49.2728 215.846 49.3575 215.558 49.5184C215.27 49.6792 215.033 49.9163 214.863 50.2211C214.694 50.5258 214.61 50.8983 214.61 51.3216C214.61 51.7449 214.694 52.1005 214.863 52.4138C215.033 52.727 215.27 52.9641 215.558 53.1249C215.846 53.2858 216.176 53.3704 216.548 53.3704H216.54Z" fill="white"/>
<path d="M226.123 54.6828C225.564 54.6828 225.073 54.5812 224.65 54.3696C224.227 54.1579 223.896 53.8447 223.659 53.4129C223.422 52.9811 223.304 52.4393 223.304 51.7874V48.0454H224.836V51.5842C224.836 52.1769 224.972 52.6171 225.234 52.9049C225.496 53.1928 225.877 53.3367 226.368 53.3367C226.732 53.3367 227.037 53.2605 227.308 53.1166C227.571 52.9727 227.782 52.7441 227.935 52.4562C228.087 52.1599 228.163 51.7959 228.163 51.3641V48.0454H229.696V54.5982H228.231V52.8287L228.485 53.3706C228.265 53.7939 227.943 54.1241 227.511 54.3442C227.08 54.5643 226.622 54.6828 226.114 54.6828H226.123Z" fill="white"/>
<path d="M233.548 56.977V48.0368H235.012V49.5861L234.962 51.3301L235.08 53.0741V56.977H233.548ZM237.18 54.6827C236.646 54.6827 236.164 54.5641 235.724 54.3186C235.283 54.0731 234.936 53.7006 234.682 53.2096C234.428 52.7185 234.293 52.0836 234.293 51.3301C234.293 50.5766 234.42 49.9332 234.665 49.4422C234.911 48.9511 235.258 48.5871 235.69 48.3416C236.122 48.0961 236.621 47.9775 237.171 47.9775C237.815 47.9775 238.39 48.113 238.881 48.3924C239.373 48.6718 239.77 49.0612 240.058 49.5607C240.346 50.0602 240.499 50.6528 240.499 51.3301C240.499 52.0074 240.355 52.6 240.058 53.108C239.77 53.6075 239.373 54.0054 238.881 54.2763C238.39 54.5557 237.815 54.6911 237.171 54.6911L237.18 54.6827ZM237.011 53.3704C237.383 53.3704 237.705 53.2858 238.001 53.1249C238.297 52.9641 238.526 52.727 238.695 52.4138C238.865 52.1005 238.949 51.7365 238.949 51.3216C238.949 50.9068 238.865 50.5258 238.695 50.2211C238.526 49.9163 238.289 49.6792 238.001 49.5184C237.713 49.3575 237.383 49.2728 237.011 49.2728C236.638 49.2728 236.308 49.3575 236.02 49.5184C235.732 49.6792 235.495 49.9163 235.317 50.2211C235.148 50.5258 235.063 50.8983 235.063 51.3216C235.063 51.7449 235.148 52.1005 235.317 52.4138C235.487 52.727 235.724 52.9641 236.02 53.1249C236.316 53.2858 236.646 53.3704 237.011 53.3704Z" fill="white"/>
</svg>
