<svg width="200" height="40" viewBox="0 0 200 40" fill="none" xmlns="http://www.w3.org/2000/svg">
<g id="&#235;&#160;&#136;&#236;&#157;&#180;&#236;&#150;&#180; 1">
<g id="Group">
<g id="Group_2">
<path id="Vector" d="M10.3698 1.45776C10.2354 0.770514 12.581 1.9209 12.7553 2.01055H23.6865C24.2293 1.95576 24.3388 0.820315 25.041 1.00458C25.6934 1.30836 26.3956 1.5972 26.799 1.95576C27.6556 2.72269 26.3558 2.76253 26.3558 3.146V14.9985C26.3558 17.2843 24.9115 16.9905 23.8359 16.9905C23.7064 16.9905 23.4823 16.8063 23.3926 16.7365C22.9644 16.4079 22.1128 16.1339 21.5699 15.86C21.1815 15.6559 21.3807 15.3471 21.6795 15.3869C22.2522 15.362 24.0749 15.7804 24.1795 15.1579V2.66293C24.1347 2.56831 24.1297 2.58325 24.0649 2.60317H12.6158V15.8899C12.6158 17.3441 10.3748 17.3092 10.3748 16.2584V1.45776H10.3698Z" fill="white"/>
<path id="Vector_2" d="M22.7604 8.70405C22.2674 8.38034 21.7345 7.92218 20.8929 7.69808C20.3401 7.53872 20.4945 8.70405 19.9517 8.70405H16.6399C16.4905 8.63931 14.3242 7.4192 14.3242 8.30564V13.8186C14.3242 14.7697 16.5951 14.6054 16.5951 13.5745V13.3903H20.1459V13.3753C20.1459 14.5158 22.3471 14.1124 22.3471 13.2857V9.60045C22.3471 9.46101 23.4925 9.17715 22.7654 8.70903L22.7604 8.70405ZM20.3302 12.6582H16.5901V9.29169L20.3302 9.26679V12.6532V12.6582Z" fill="white"/>
<path id="Vector_3" d="M14.02 6.2284C13.5718 6.38776 13.2132 5.26227 13.8308 5.35191C14.6176 5.43657 14.772 5.45649 15.2949 5.48139H19.9214C20.0558 5.48139 20.1853 5.46147 20.2002 5.35191C20.3397 3.78818 20.9373 3.87284 23.1584 5.59593C23.502 5.86984 23.1733 6.079 22.8197 6.079H15.4991C14.9015 6.09394 14.5828 6.14374 14.015 6.22342L14.02 6.2284Z" fill="white"/>
<path id="Vector_4" d="M1.69973 21.0443C1.89893 20.7555 2.90988 20.8152 3.18378 20.7206C3.4527 20.616 5.873 20.4915 6.28635 20.4915C6.69969 20.4915 7.66582 20.4368 7.87 20.3172C8.05924 20.2027 9.15983 20.1579 9.83214 20.1131C10.4995 20.0633 11.3062 19.9836 12.118 19.9836C12.9297 19.9836 14.2943 19.4059 15.106 19.2166C15.9178 19.0224 16.3809 18.619 17.4964 18.39C18.597 18.1609 21.0323 18.6738 21.7494 18.7983C22.4665 18.9278 24.0153 19.0423 24.588 19.2166C25.1557 19.391 25.4944 19.625 25.9675 19.5752C26.4306 19.5155 28.1587 19.5951 28.4774 19.7495C28.7961 19.889 29.8768 20.0682 30.3947 19.9786C30.9176 19.874 32.3967 19.9487 33.0541 20.0384C33.7214 20.1429 33.9804 20.4866 34.1895 20.6509C34.3887 20.8202 34.2692 21.1389 33.9804 21.1738C33.7264 21.1987 32.327 21.114 31.7792 21.0642C31.2364 21.0244 27.9894 21.0493 27.5262 20.9248C27.0432 20.7953 24.7474 20.7555 24.344 20.8202C23.9506 20.87 21.3809 20.8202 21.0323 20.8003C20.6986 20.7605 20.3251 20.7306 20.0064 20.5015C19.6827 20.2774 18.6269 20.4915 18.0094 20.5563C17.3968 20.626 15.9875 20.7007 15.35 20.8352C14.7076 20.9945 10.6987 21.2983 10.3202 21.2983C9.9417 21.2983 9.53333 21.7515 7.36702 21.622C5.20568 21.5174 6.39093 21.8262 4.76245 21.6917C3.13398 21.5822 2.76546 21.9258 2.59115 21.9706C2.41685 22.0254 1.89893 22.0453 1.72961 21.871C1.55531 21.6917 1.69973 21.0543 1.69973 21.0543V21.0443Z" fill="white"/>
<path id="Vector_5" d="M4.5831 32.4584C3.86099 32.4236 3.0094 32.3788 2.61598 32.1248C2.2126 31.8907 0.813204 32.3837 0.419781 32.4684C0.0213773 32.578 -0.0732435 32.309 0.0512575 32.1497C0.170779 32.0053 1.06221 30.8997 1.09707 30.322C1.15683 29.7593 1.52535 29.5551 1.75443 29.321C1.96857 29.1168 1.67475 28.7085 1.84407 28.574C2.01837 28.4495 2.70064 27.6876 2.73052 27.3788C2.75542 27.085 3.19367 26.3529 3.39785 26.1388C3.59705 25.8997 3.93071 25.2374 3.95561 25.0083C3.99047 24.7842 4.30421 24.1368 4.45362 22.9167C4.45362 22.9167 4.59804 22.7374 4.99146 22.6378C5.39484 22.5482 5.63389 22.3988 5.72851 22.4237C5.83807 22.4386 6.01237 22.8121 6.01237 22.9964C6.01237 23.1507 6.13189 24.6497 6.49543 25.4665C6.86396 26.2882 7.16276 27.5431 7.20758 27.7125C7.26236 27.8868 7.59104 28.7384 7.69064 28.9027C7.82511 29.077 8.00439 29.8091 8.00439 29.9734C8.00439 30.1626 8.65677 31.0939 8.88585 31.3081C9.10498 31.5371 9.47848 32.2792 8.79123 32.4286C8.09901 32.5829 7.05818 32.4634 6.57013 32.314C6.08209 32.1596 5.29026 32.4734 4.57812 32.4634L4.5831 32.4584Z" fill="white"/>
<path id="Vector_6" d="M18.8163 27.4035C18.7814 27.5579 18.7565 28.1107 18.5872 28.3547C18.4278 28.6187 18.373 29.8437 18.2336 30.1525C18.119 30.4463 17.4368 31.5519 17.2724 31.8955C17.1031 32.264 16.4756 33.6286 16.122 34.0768C15.7635 34.51 14.8671 35.7252 14.633 36.0489C14.4039 36.3726 13.7764 37.6574 12.8153 38.0608C11.8442 38.4692 11.3014 38.5538 10.6091 38.773C9.91691 38.9771 9.73265 39.1066 9.02051 38.9373C8.30836 38.773 8.0743 38.7032 7.89004 38.7032C7.69084 38.7032 7.53147 38.3198 7.56633 38.0359C7.61115 37.7272 7.40697 37.2789 8.01454 37.1345C8.6221 36.9901 9.62309 36.9652 9.80237 36.6365C9.9717 36.3377 11.8093 34.9084 12.2874 34.261C12.7705 33.5738 14.628 32.1595 14.9667 31.5569C15.3302 30.9344 15.8083 29.1416 16.0872 28.7432C16.3561 28.3497 16.6051 26.776 16.9637 26.2332C17.3173 25.7103 17.1479 24.1765 17.0683 23.9324C16.9836 23.6784 16.3163 22.9962 15.644 22.6127C15.644 22.6127 15.3352 22.1695 15.8631 21.9952C16.376 21.8358 16.6848 21.7512 16.9886 21.8458C17.2774 21.9404 17.87 22.05 18.0095 22.1844C18.1639 22.3189 18.5324 22.1197 18.7914 22.289C19.0404 22.4484 19.5782 22.7671 19.6728 23.1804C19.7774 23.5788 19.633 25.3766 19.4637 25.78C19.2943 26.1834 18.876 27.2591 18.8312 27.4085L18.8163 27.4035Z" fill="white"/>
<path id="Vector_7" d="M30.2203 38.579C29.9016 38.8728 29.5629 38.9774 29.2392 38.9525C28.9055 38.9376 28.3577 38.8579 27.9842 38.7035C27.6008 38.5591 27.1426 38.4694 26.8886 38.4993C26.6396 38.5292 26.1366 38.2951 26.1366 38.0661C26.1366 37.8668 25.9872 37.2394 25.6237 37.0103C25.2701 36.7762 24.4534 36.089 24.1197 35.6507C23.7811 35.2324 23.1138 34.5103 23.059 34.341C22.9942 34.1617 22.2323 33.1607 22.1924 32.8669C22.1526 32.578 21.6247 31.7663 21.4952 31.597C21.3658 31.4376 20.9076 30.6557 20.8976 30.5462C20.8727 30.4565 20.2602 29.7095 20.1556 29.5253C20.051 29.3211 20.051 28.6787 19.9315 28.5342C19.807 28.3948 19.5132 27.6777 19.4883 27.3141C19.4883 27.3141 19.5132 26.856 19.8468 26.9556C20.1855 27.0751 20.4146 27.105 20.564 27.1747C20.7034 27.2394 21.2512 27.598 21.306 28.0163C21.3658 28.4496 21.56 28.8779 21.6695 29.0173C21.7691 29.1667 21.9833 29.4406 22.2124 29.6398C22.4414 29.8241 22.8299 30.1378 23.054 30.4914C23.2582 30.84 23.4474 31.0392 23.5968 31.3978C23.7462 31.7613 24.0102 32.1896 24.2243 32.4037C24.4285 32.598 25.056 33.325 25.0809 33.5093C25.1008 33.6786 25.1506 34.0621 25.5141 34.2613C25.8976 34.4456 26.1018 34.7195 26.4006 34.8489C26.7243 34.9685 27.2024 35.078 27.3468 35.2424C27.4813 35.4216 27.7801 35.6607 28.1187 35.845C28.4524 36.0143 29.3139 36.3977 29.6326 36.821C29.9314 37.2443 30.0012 37.568 30.1057 37.822C30.2153 38.0661 30.534 38.2951 30.2153 38.584L30.2203 38.579Z" fill="white"/>
<path id="Vector_8" d="M36.8241 32.1546C36.4008 32.1247 35.9377 32.05 35.2704 31.8956C34.603 31.7512 33.0493 31.8956 32.3869 31.8907C31.7196 31.8508 30.5144 31.6466 30.0513 31.6765C29.5682 31.6964 28.6768 31.8508 28.5423 32.0052C28.4228 32.1496 27.4567 32.2741 27.3322 32.0052C27.2077 31.7313 27.2874 31.3329 27.5762 30.8548C27.875 30.3767 28.0294 29.1915 28.3431 28.7333C28.6718 28.2801 28.7864 27.309 28.9806 26.7612C29.1798 26.2084 29.6479 24.6447 29.867 24.3758C30.0961 24.1318 30.4646 23.574 30.2156 22.2891C30.2156 22.2891 30.4099 21.7214 30.6838 21.7862C30.9527 21.8559 31.5453 21.9854 31.615 22.2194C31.6897 22.4933 31.7694 23.7084 32.0632 24.1318C32.357 24.5551 32.5114 24.8389 32.7306 25.0232C32.9547 25.2373 33.8361 26.313 34.0901 26.8857C34.3391 27.4634 34.1349 27.2642 34.2644 27.4335C34.3839 27.6128 34.7076 27.9415 34.8819 28.1905C35.0463 28.4345 35.375 29.0321 35.3899 29.2961C35.4198 29.5749 35.9327 30.4265 36.1269 30.6506C36.3361 30.8797 36.8988 31.6118 37.0532 31.7363C37.1927 31.8508 37.2375 32.1745 36.8241 32.1546Z" fill="white"/>
</g>
<g id="Group_3">
<path id="Vector_9" d="M61.1618 15.2727C61.1618 15.6661 60.7336 15.7806 60.0463 15.7806C59.3591 15.7806 58.9308 15.6661 58.9308 15.2727V12.5287H56.3063V14.0874C56.3063 14.8593 55.9278 15.3374 55.141 15.3374H50.8731C50.4298 15.3374 49.9219 14.9739 49.5583 14.6004C49.1948 14.2567 48.8711 13.7787 48.8711 13.4699V8.15121H51.0573V9.9241H54.125V8.15121H56.3113V10.6462H58.9358V8.02173H61.1668V15.2777L61.1618 15.2727ZM51.0474 13.2508C51.0474 13.4151 51.1271 13.4998 51.2615 13.4998H54.1201V11.7568H51.0524V13.2508H51.0474ZM53.393 23.1362C52.9497 23.1362 52.4418 22.7776 52.0782 22.3991C51.7147 22.0555 51.391 21.5774 51.391 21.2686V16.5725H53.6071V18.0665H58.7615V16.5725H60.9776V21.9409C60.9776 22.6979 60.5991 23.1411 59.7973 23.1411H53.393V23.1362ZM58.7615 21.2786V19.8842H53.6071V21.0346C53.6071 21.1989 53.6868 21.2836 53.8213 21.2836H58.7615V21.2786Z" fill="white"/>
<path id="Vector_10" d="M76.744 16.5026C77.1872 16.5026 77.2519 16.8462 77.2519 17.4737C77.2519 18.1012 77.1872 18.4249 76.744 18.4249H71.2609V22.1002C71.2609 22.4787 70.8526 22.5783 70.1105 22.5783C69.4233 22.5783 68.995 22.4936 68.995 22.1201V18.4249H63.1484V16.5026H76.744ZM67.1574 14.9936C66.749 14.9936 66.1414 14.5504 65.7928 14.1869C65.4492 13.8433 65.1056 13.3851 65.1056 13.0863V8.65405H75.1354V13.7586C75.1354 14.5305 74.7719 14.9887 73.985 14.9887H67.1574V14.9936ZM67.3715 12.7427C67.3715 13.0216 67.4861 13.1012 67.7649 13.1012H72.8695V10.5415H67.3715V12.7427Z" fill="white"/>
<path id="Vector_11" d="M90.8874 15.2727C90.8874 15.6661 90.4591 15.7806 89.7719 15.7806C89.0846 15.7806 88.6564 15.6661 88.6564 15.2727V12.5287H86.0319V14.0874C86.0319 14.8593 85.6534 15.3374 84.8666 15.3374H80.5987C80.1554 15.3374 79.6475 14.9739 79.2839 14.6004C78.9204 14.2567 78.5967 13.7787 78.5967 13.4699V8.15121H80.7779V9.9241H83.8506V8.15121H86.0319V10.6462H88.6564V8.02173H90.8874V15.2777V15.2727ZM80.773 13.2508C80.773 13.4151 80.8576 13.4998 80.9871 13.4998H83.8456V11.7568H80.773V13.2508ZM83.1186 23.1362C82.6753 23.1362 82.1674 22.7776 81.8038 22.3991C81.4403 22.0555 81.1166 21.5774 81.1166 21.2686V16.5725H83.3327V18.0665H88.487V16.5725H90.7032V21.9409C90.7032 22.6979 90.3247 23.1411 89.5229 23.1411H83.1186V23.1362ZM88.487 21.2786V19.8842H83.3327V21.0346C83.3327 21.1989 83.4124 21.2836 83.5468 21.2836H88.487V21.2786Z" fill="white"/>
<path id="Vector_12" d="M92.8594 12.2198C92.8594 10.1032 94.6671 8.39508 96.9131 8.39508C99.1591 8.39508 100.952 10.1032 100.952 12.2198C100.952 14.3363 99.1641 16.0295 96.9131 16.0295C94.6622 16.0295 92.8594 14.3213 92.8594 12.2198ZM95.0307 12.2198C95.0307 13.2705 95.7528 14.157 96.9181 14.157C98.0834 14.157 98.7906 13.2705 98.7906 12.2198C98.7906 11.169 98.0834 10.2676 96.9181 10.2676C95.7528 10.2676 95.0307 11.169 95.0307 12.2198ZM105.404 21.1141C105.768 21.1141 105.832 21.4926 105.832 22.0504C105.832 22.6579 105.768 22.9717 105.404 22.9717H97.9689C97.5406 22.9717 96.953 22.5782 96.6044 22.2147C96.2408 21.8711 95.9171 21.3631 95.9171 21.0494V17.5534H98.1482V20.7556C98.1482 21.0046 98.2777 21.1191 98.5267 21.1191H105.404V21.1141ZM105.504 17.9966C105.504 18.4249 104.996 18.4896 104.388 18.4896C103.681 18.4896 103.273 18.3751 103.273 17.9966V8.0166H105.504V17.9966Z" fill="white"/>
<path id="Vector_13" d="M112.172 7.24463C111.072 9.01752 110.235 12.3691 110.235 15.3372C110.235 18.3053 111.087 21.5125 112.172 23.3003H110.036C109.07 21.9059 108.049 18.5045 108.049 15.3372C108.049 12.1699 109.085 8.66892 110.051 7.24463H112.167H112.172Z" fill="white"/>
<path id="Vector_14" d="M126.59 16.5028C127.033 16.5028 127.098 16.8464 127.098 17.4739C127.098 18.1014 127.033 18.4251 126.59 18.4251H123.846V22.1003C123.846 22.4788 123.452 22.5784 122.715 22.5784C122.028 22.5784 121.615 22.4938 121.615 22.1203V18.4251H118.427V22.1003C118.427 22.4788 118.034 22.5784 117.297 22.5784C116.61 22.5784 116.196 22.4938 116.196 22.1203V18.4251H112.994V16.5028H126.59ZM119.976 15.4669C117.546 15.4669 115.409 14.0376 115.409 11.6273C115.409 9.21697 117.546 7.78271 119.976 7.78271C122.406 7.78271 124.543 9.21199 124.543 11.6273C124.543 14.0426 122.406 15.4669 119.976 15.4669ZM119.976 9.67513C118.711 9.67513 117.675 10.3972 117.675 11.6273C117.675 12.8574 118.711 13.5795 119.976 13.5795C121.241 13.5795 122.277 12.8574 122.277 11.6273C122.277 10.3972 121.241 9.67513 119.976 9.67513Z" fill="white"/>
<path id="Vector_15" d="M136.445 9.27644C136.824 9.27644 136.889 9.55533 136.889 10.1629C136.889 10.7705 136.824 11.0842 136.445 11.0842H128.188V9.27644H131.341V7.89697H133.592V9.27644H136.45H136.445ZM132.491 11.6121C134.528 11.6121 135.987 12.9916 135.987 14.6151C135.987 16.2385 134.528 17.618 132.491 17.618C130.454 17.618 128.995 16.2385 128.995 14.6151C128.995 12.9916 130.454 11.6121 132.491 11.6121ZM140.111 21.114C140.474 21.114 140.539 21.4925 140.539 22.0503C140.539 22.6578 140.474 22.9716 140.111 22.9716H132.705C132.277 22.9716 131.689 22.5781 131.341 22.2146C130.977 21.871 130.654 21.363 130.654 21.0493V18.375H132.885V20.7554C132.885 21.0044 133.014 21.119 133.263 21.119H140.111V21.114ZM132.491 13.385C131.62 13.385 131.162 13.9925 131.162 14.6001C131.162 15.2425 131.62 15.8501 132.491 15.8501C133.363 15.8501 133.821 15.2425 133.821 14.6001C133.821 13.9925 133.363 13.385 132.491 13.385ZM140.24 18.3252C140.24 18.7535 139.732 18.8182 139.125 18.8182C138.417 18.8182 138.009 18.7037 138.009 18.3252V8.01649H140.24V12.2844H142.72V14.1718H140.24V18.3252Z" fill="white"/>
<path id="Vector_16" d="M145.156 7.24463C146.127 8.6739 147.158 12.1052 147.158 15.3372C147.158 18.5692 146.142 21.9059 145.171 23.3003H143.034C144.12 21.5125 144.971 18.2605 144.971 15.3372C144.971 12.4139 144.135 9.01752 143.034 7.24463H145.151H145.156Z" fill="white"/>
</g>
<g id="Group_4">
<path id="Vector_17" d="M160.941 10.5614V12.7426C160.941 13.146 161.156 13.3602 161.534 13.3602H172.829C173.451 13.3602 173.556 13.8432 173.556 14.8442C173.556 15.8452 173.446 16.3532 172.829 16.3532H167.251V18.5095H176.255C176.982 18.5095 177.092 18.9677 177.092 19.9936C177.092 21.0195 176.982 21.4477 176.255 21.4477H153.935V18.5095H163.531V16.3532H160.702C160 16.3532 159.004 15.6809 158.412 15.0882C157.844 14.4956 157.281 13.659 157.281 13.1211V7.56836H172.565C173.187 7.56836 173.292 8.05142 173.292 9.05241C173.292 10.0534 173.182 10.5614 172.565 10.5614H160.946H160.941ZM165.359 32.9865C161.718 32.9865 158.297 31.1538 158.297 27.7575C158.297 24.3611 161.718 22.5284 165.359 22.5284C168.999 22.5284 172.42 24.3611 172.42 27.7575C172.42 31.1538 168.999 32.9865 165.359 32.9865ZM165.389 25.5214C163.367 25.5214 161.967 26.383 161.967 27.7575C161.967 29.1319 163.367 29.9935 165.389 29.9935C167.411 29.9935 168.76 29.1319 168.76 27.7575C168.76 26.383 167.361 25.5214 165.389 25.5214Z" fill="white"/>
<path id="Vector_18" d="M178.705 14.4954C178.705 11.0193 181.668 8.21552 185.363 8.21552C189.059 8.21552 191.997 11.0193 191.997 14.4954C191.997 17.9714 189.059 20.7503 185.363 20.7503C181.668 20.7503 178.705 17.9465 178.705 14.4954ZM182.261 14.4954C182.261 16.2185 183.446 17.6776 185.358 17.6776C187.271 17.6776 188.431 16.2234 188.431 14.4954C188.431 12.7673 187.271 11.2882 185.358 11.2882C183.446 11.2882 182.261 12.7723 182.261 14.4954ZM199.298 29.1068C199.89 29.1068 200 29.7293 200 30.6456C200 31.6416 199.89 32.1546 199.298 32.1546H187.086C186.384 32.1546 185.413 31.5072 184.85 30.9146C184.258 30.3468 183.72 29.5152 183.72 29.0022V23.2602H187.385V28.5142C187.385 28.9176 187.599 29.1068 188.008 29.1068H199.303H199.298ZM199.462 23.9823C199.462 24.6845 198.625 24.7891 197.629 24.7891C196.469 24.7891 195.797 24.5999 195.797 23.9823V7.59302H199.462V23.9823Z" fill="white"/>
</g>
<g id="Group_5">
<path id="Vector_19" d="M56.0176 33.1009V28.0461H58.2287C58.7765 28.0461 59.2596 28.1507 59.6729 28.3649C60.0863 28.579 60.41 28.8728 60.6391 29.2463C60.8681 29.6198 60.9877 30.0631 60.9877 30.576C60.9877 31.0889 60.8731 31.5222 60.6391 31.9007C60.41 32.2792 60.0863 32.573 59.6729 32.7871C59.2596 33.0013 58.7765 33.1059 58.2287 33.1059H56.0176V33.1009ZM56.9538 32.3041H58.1789C58.5574 32.3041 58.8861 32.2344 59.165 32.085C59.4438 31.9405 59.658 31.7364 59.8074 31.4774C59.9568 31.2184 60.0365 30.9146 60.0365 30.566C60.0365 30.2174 59.9618 29.9087 59.8074 29.6547C59.658 29.3957 59.4389 29.1965 59.165 29.0521C58.8861 28.9077 58.5574 28.833 58.1789 28.833H56.9538V32.2991V32.3041Z" fill="white"/>
<path id="Vector_20" d="M64.707 33.151C64.3136 33.151 63.96 33.0663 63.6513 32.897C63.3425 32.7277 63.0985 32.4936 62.9242 32.1948C62.7449 31.896 62.6553 31.5574 62.6553 31.1789C62.6553 30.8004 62.7449 30.4518 62.9242 30.158C63.1035 29.8642 63.3475 29.6301 63.6513 29.4608C63.96 29.2914 64.3086 29.2068 64.707 29.2068C65.1055 29.2068 65.464 29.2914 65.7728 29.4608C66.0815 29.6301 66.3256 29.8592 66.4999 30.153C66.6742 30.4468 66.7638 30.7904 66.7638 31.1789C66.7638 31.5673 66.6742 31.901 66.4999 32.1948C66.3256 32.4936 66.0815 32.7277 65.7728 32.897C65.464 33.0663 65.1055 33.151 64.707 33.151ZM64.707 32.3791C64.9262 32.3791 65.1254 32.3293 65.2997 32.2347C65.474 32.14 65.6084 32.0006 65.708 31.8163C65.8076 31.6321 65.8574 31.4179 65.8574 31.1739C65.8574 30.9299 65.8076 30.7058 65.708 30.5265C65.6084 30.3472 65.474 30.2078 65.2997 30.1132C65.1254 30.0185 64.9312 29.9687 64.717 29.9687C64.5029 29.9687 64.2987 30.0185 64.1294 30.1132C63.96 30.2078 63.8206 30.3472 63.721 30.5265C63.6214 30.7058 63.5716 30.9249 63.5716 31.1739C63.5716 31.4229 63.6214 31.6321 63.721 31.8163C63.8206 32.0006 63.96 32.14 64.1294 32.2347C64.2987 32.3293 64.4929 32.3791 64.712 32.3791H64.707Z" fill="white"/>
<path id="Vector_21" d="M70.9031 29.2017C71.2119 29.2017 71.4858 29.2614 71.7298 29.3809C71.9738 29.5005 72.1631 29.6847 72.3025 29.9337C72.442 30.1827 72.5117 30.5015 72.5117 30.8899V33.101H71.6103V31.0094C71.6103 30.6658 71.5306 30.4118 71.3663 30.2425C71.2069 30.0732 70.9778 29.9885 70.689 29.9885C70.4749 29.9885 70.2906 30.0333 70.1262 30.118C69.9619 30.2026 69.8374 30.3321 69.7478 30.5064C69.6581 30.6758 69.6133 30.8949 69.6133 31.1538V33.101H68.7119V29.2465H69.5735V30.2873L69.4241 29.9686C69.5585 29.7246 69.7527 29.5353 70.0117 29.4009C70.2707 29.2664 70.5645 29.2017 70.9031 29.2017Z" fill="white"/>
<path id="Vector_22" d="M76.3857 32.9269C76.0221 32.9269 75.6885 32.8472 75.3946 32.6928C75.1008 32.5384 74.8668 32.3193 74.6925 32.0404C74.5231 31.7615 74.4385 31.4329 74.4385 31.0594C74.4385 30.6859 74.5231 30.3622 74.6925 30.0833C74.8618 29.8044 75.0958 29.5853 75.3946 29.4359C75.6885 29.2815 76.0221 29.2068 76.3857 29.2068C76.7144 29.2068 77.0082 29.2715 77.2671 29.401C77.5261 29.5305 77.7353 29.7347 77.8896 30.0086C78.044 30.2825 78.1237 30.6361 78.1237 31.0643C78.1237 31.4926 78.044 31.8462 77.8896 32.1201C77.7353 32.394 77.5261 32.6032 77.2671 32.7327C77.0082 32.8671 76.7144 32.9319 76.3857 32.9319V32.9269ZM76.5002 34.5504C76.1417 34.5504 75.798 34.5056 75.4544 34.4109C75.1108 34.3163 74.8369 34.1818 74.6227 34.0026L75.0261 33.3253C75.1954 33.4647 75.4096 33.5793 75.6636 33.6589C75.9175 33.7386 76.1815 33.7834 76.4454 33.7834C76.8687 33.7834 77.1775 33.6838 77.3767 33.4896C77.5759 33.2954 77.6705 33.0016 77.6705 32.6131V31.9259L77.7452 31.0544L77.7153 30.1829V29.2416H78.5769V32.5135C78.5769 33.2107 78.3976 33.7237 78.044 34.0573C77.6855 34.386 77.1725 34.5504 76.5002 34.5504ZM76.5201 32.16C76.7442 32.16 76.9484 32.1151 77.1277 32.0205C77.307 31.9259 77.4464 31.7964 77.541 31.6321C77.6357 31.4677 77.6904 31.2735 77.6904 31.0594C77.6904 30.8452 77.6406 30.651 77.541 30.4867C77.4414 30.3223 77.302 30.1928 77.1277 30.1032C76.9484 30.0136 76.7492 29.9687 76.5201 29.9687C76.291 29.9687 76.0918 30.0136 75.9076 30.1032C75.7283 30.1928 75.5889 30.3223 75.4893 30.4867C75.3897 30.651 75.3399 30.8452 75.3399 31.0594C75.3399 31.2735 75.3897 31.4677 75.4893 31.6321C75.5889 31.7964 75.7283 31.9259 75.9076 32.0205C76.0869 32.1151 76.291 32.16 76.5201 32.16Z" fill="white"/>
<path id="Vector_23" d="M80.9326 33.1009V28.0461H81.8689V33.1009H80.9326Z" fill="white"/>
<path id="Vector_24" d="M86.4207 29.2017C86.7295 29.2017 87.0034 29.2614 87.2474 29.3809C87.4914 29.5005 87.6807 29.6847 87.8201 29.9337C87.9595 30.1827 88.0293 30.5015 88.0293 30.8899V33.101H87.1279V31.0094C87.1279 30.6658 87.0482 30.4118 86.8839 30.2425C86.7245 30.0732 86.4954 29.9885 86.2066 29.9885C85.9924 29.9885 85.8082 30.0333 85.6438 30.118C85.4795 30.2026 85.355 30.3321 85.2653 30.5064C85.1757 30.6758 85.1309 30.8949 85.1309 31.1538V33.101H84.2295V29.2465H85.091V30.2873L84.9416 29.9686C85.0761 29.7246 85.2703 29.5353 85.5293 29.4009C85.7882 29.2664 86.0821 29.2017 86.4207 29.2017Z" fill="white"/>
<path id="Vector_25" d="M93.4229 33.1009V28.0461H94.3591V32.3041H97.0035V33.0959H93.4229V33.1009Z" fill="white"/>
<path id="Vector_26" d="M99.9158 33.1512C99.627 33.1512 99.373 33.1014 99.1588 33.0018C98.9447 32.9022 98.7754 32.7677 98.6558 32.5884C98.5363 32.4092 98.4766 32.2149 98.4766 31.9908C98.4766 31.7667 98.5264 31.5775 98.6309 31.4082C98.7355 31.2388 98.9048 31.0994 99.1389 30.9948C99.373 30.8952 99.6867 30.8404 100.075 30.8404H101.196V31.438H100.14C99.8311 31.438 99.627 31.4878 99.5174 31.5874C99.4078 31.687 99.358 31.8066 99.358 31.951C99.358 32.1153 99.4228 32.2448 99.5522 32.3394C99.6817 32.4341 99.861 32.4838 100.095 32.4838C100.329 32.4838 100.513 32.434 100.693 32.3344C100.867 32.2348 100.996 32.0854 101.071 31.8862L101.221 32.4291C101.136 32.6582 100.977 32.8325 100.752 32.957C100.528 33.0815 100.244 33.1462 99.9058 33.1462L99.9158 33.1512ZM101.126 33.1014V32.3195L101.076 32.1552V30.7906C101.076 30.5267 100.996 30.3225 100.837 30.1731C100.678 30.0287 100.439 29.954 100.115 29.954C99.8959 29.954 99.6867 29.9888 99.4775 30.0536C99.2684 30.1183 99.0891 30.2129 98.9447 30.3325L98.5911 29.6751C98.8003 29.5157 99.0443 29.3962 99.3331 29.3165C99.617 29.2369 99.9158 29.197 100.225 29.197C100.782 29.197 101.216 29.3315 101.519 29.5954C101.823 29.8643 101.978 30.2777 101.978 30.8355V33.0964H101.126V33.1014Z" fill="white"/>
<path id="Vector_27" d="M104.996 33.1014L103.582 29.2468H104.434L105.649 32.6482H105.245L106.515 29.2468H107.272L108.507 32.6482H108.109L109.359 29.2468H110.161L108.736 33.1014H107.87L106.744 30.0885H107.013L105.863 33.1014H104.996Z" fill="white"/>
<path id="Vector_28" d="M117.386 33.1708C116.993 33.1708 116.629 33.1061 116.301 32.9816C115.972 32.8571 115.683 32.6728 115.439 32.4388C115.195 32.2047 115.006 31.9308 114.866 31.6121C114.732 31.2934 114.662 30.9497 114.662 30.5713C114.662 30.1928 114.732 29.8492 114.866 29.5304C115.001 29.2117 115.19 28.9378 115.439 28.7037C115.688 28.4697 115.977 28.2904 116.311 28.1609C116.644 28.0314 117.008 27.9717 117.401 27.9717C117.829 27.9717 118.218 28.0414 118.561 28.1808C118.905 28.3203 119.194 28.5245 119.433 28.7934L118.84 29.3711C118.641 29.1719 118.432 29.0274 118.203 28.9328C117.974 28.8382 117.725 28.7934 117.446 28.7934C117.167 28.7934 116.933 28.8382 116.709 28.9229C116.485 29.0075 116.286 29.132 116.126 29.2914C115.962 29.4508 115.837 29.64 115.748 29.8541C115.658 30.0683 115.613 30.3073 115.613 30.5713C115.613 30.8352 115.658 31.0643 115.748 31.2784C115.837 31.4976 115.962 31.6818 116.126 31.8462C116.291 32.0105 116.485 32.13 116.704 32.2197C116.923 32.3043 117.172 32.3491 117.441 32.3491C117.69 32.3491 117.934 32.3093 118.168 32.2296C118.402 32.1499 118.626 32.0155 118.835 31.8312L119.368 32.5334C119.104 32.7475 118.796 32.9069 118.447 33.0165C118.098 33.126 117.745 33.1808 117.391 33.1808L117.386 33.1708ZM118.477 32.4089V30.5165H119.363V32.5284L118.477 32.4039V32.4089Z" fill="white"/>
<path id="Vector_29" d="M121.6 33.101V29.2465H122.461V30.3072L122.362 29.9985C122.476 29.7395 122.66 29.5403 122.904 29.4058C123.153 29.2714 123.462 29.2017 123.831 29.2017V30.0582C123.791 30.0483 123.756 30.0433 123.721 30.0383C123.686 30.0383 123.651 30.0383 123.622 30.0383C123.278 30.0383 123.009 30.1379 122.805 30.3371C122.601 30.5363 122.501 30.8351 122.501 31.2285V33.0961H121.6V33.101Z" fill="white"/>
<path id="Vector_30" d="M127.377 33.151C126.984 33.151 126.63 33.0663 126.321 32.897C126.012 32.7277 125.768 32.4936 125.594 32.1948C125.415 31.896 125.325 31.5574 125.325 31.1789C125.325 30.8004 125.415 30.4518 125.594 30.158C125.773 29.8642 126.017 29.6301 126.321 29.4608C126.63 29.2914 126.979 29.2068 127.377 29.2068C127.775 29.2068 128.134 29.2914 128.443 29.4608C128.751 29.6301 128.995 29.8592 129.17 30.153C129.344 30.4468 129.434 30.7904 129.434 31.1789C129.434 31.5673 129.344 31.901 129.17 32.1948C128.995 32.4936 128.751 32.7277 128.443 32.897C128.134 33.0663 127.775 33.151 127.377 33.151ZM127.377 32.3791C127.596 32.3791 127.795 32.3293 127.97 32.2347C128.144 32.14 128.278 32.0006 128.378 31.8163C128.478 31.6321 128.527 31.4179 128.527 31.1739C128.527 30.9299 128.478 30.7058 128.378 30.5265C128.278 30.3472 128.144 30.2078 127.97 30.1132C127.795 30.0185 127.601 29.9687 127.387 29.9687C127.173 29.9687 126.969 30.0185 126.799 30.1132C126.63 30.2078 126.491 30.3472 126.391 30.5265C126.291 30.7058 126.242 30.9249 126.242 31.1739C126.242 31.4229 126.291 31.6321 126.391 31.8163C126.491 32.0006 126.63 32.14 126.799 32.2347C126.969 32.3293 127.163 32.3791 127.382 32.3791H127.377Z" fill="white"/>
<path id="Vector_31" d="M133.014 33.1512C132.685 33.1512 132.396 33.0914 132.147 32.9669C131.898 32.8424 131.704 32.6582 131.565 32.4042C131.425 32.1502 131.355 31.8315 131.355 31.448V29.2468H132.257V31.3285C132.257 31.6771 132.337 31.9361 132.491 32.1054C132.645 32.2747 132.869 32.3594 133.158 32.3594C133.372 32.3594 133.552 32.3145 133.711 32.2299C133.865 32.1452 133.99 32.0108 134.08 31.8414C134.169 31.6671 134.214 31.453 134.214 31.199V29.2468H135.115V33.1014H134.254V32.0606L134.403 32.3793C134.274 32.6283 134.085 32.8225 133.831 32.952C133.577 33.0815 133.308 33.1512 133.009 33.1512H133.014Z" fill="white"/>
<path id="Vector_32" d="M137.381 34.5006V29.2416H138.242V30.153L138.213 31.1789L138.282 32.2048V34.5006H137.381ZM139.517 33.151C139.204 33.151 138.92 33.0813 138.661 32.9368C138.402 32.7924 138.198 32.5733 138.048 32.2845C137.899 31.9956 137.819 31.6221 137.819 31.1789C137.819 30.7357 137.894 30.3572 138.038 30.0683C138.183 29.7795 138.387 29.5654 138.641 29.4209C138.895 29.2765 139.189 29.2068 139.512 29.2068C139.891 29.2068 140.229 29.2865 140.518 29.4508C140.807 29.6151 141.041 29.8442 141.211 30.1381C141.38 30.4319 141.469 30.7805 141.469 31.1789C141.469 31.5773 141.385 31.9259 141.211 32.2247C141.041 32.5185 140.807 32.7526 140.518 32.9119C140.229 33.0763 139.891 33.156 139.512 33.156L139.517 33.151ZM139.418 32.3791C139.637 32.3791 139.826 32.3293 140 32.2347C140.175 32.14 140.309 32.0006 140.409 31.8163C140.508 31.6321 140.558 31.4179 140.558 31.1739C140.558 30.9299 140.508 30.7058 140.409 30.5265C140.309 30.3472 140.17 30.2078 140 30.1132C139.831 30.0185 139.637 29.9687 139.418 29.9687C139.199 29.9687 139.004 30.0185 138.835 30.1132C138.666 30.2078 138.526 30.3472 138.422 30.5265C138.322 30.7058 138.272 30.9249 138.272 31.1739C138.272 31.4229 138.322 31.6321 138.422 31.8163C138.521 32.0006 138.661 32.14 138.835 32.2347C139.009 32.3293 139.204 32.3791 139.418 32.3791Z" fill="white"/>
</g>
</g>
</g>
</svg>
