<svg width="45" height="44" viewBox="0 0 45 44" fill="none" xmlns="http://www.w3.org/2000/svg">
<rect x="1" y="0.5" width="43" height="43" rx="21.5" fill="white"/>
<rect x="1" y="0.5" width="43" height="43" rx="21.5" stroke="white"/>
<g clip-path="url(#clip0_1083_10775)">
<path d="M15.5 23H27.36L23.73 27.36C23.646 27.4611 23.5826 27.5778 23.5437 27.7034C23.5047 27.829 23.4909 27.961 23.503 28.0919C23.5274 28.3564 23.6558 28.6003 23.86 28.77C24.0642 28.9397 24.3275 29.0214 24.5919 28.997C24.8563 28.9726 25.1003 28.8442 25.27 28.64L30.27 22.64C30.3036 22.5923 30.3337 22.5421 30.36 22.49C30.36 22.44 30.41 22.41 30.43 22.36C30.4753 22.2453 30.4991 22.1233 30.5 22C30.4991 21.8767 30.4753 21.7547 30.43 21.64C30.43 21.59 30.38 21.56 30.36 21.51C30.3337 21.4579 30.3036 21.4077 30.27 21.36L25.27 15.36C25.176 15.2471 25.0582 15.1563 24.9252 15.0941C24.7921 15.0319 24.6469 14.9998 24.5 15C24.2663 14.9995 24.0399 15.0809 23.86 15.23C23.7587 15.314 23.675 15.4171 23.6137 15.5334C23.5523 15.6497 23.5145 15.7771 23.5025 15.908C23.4904 16.039 23.5043 16.1711 23.5433 16.2967C23.5824 16.4223 23.6458 16.539 23.73 16.64L27.36 21H15.5C15.2348 21 14.9804 21.1054 14.7929 21.2929C14.6054 21.4804 14.5 21.7348 14.5 22C14.5 22.2652 14.6054 22.5196 14.7929 22.7071C14.9804 22.8946 15.2348 23 15.5 23Z" fill="#282828"/>
</g>
<defs>
<clipPath id="clip0_1083_10775">
<rect width="24" height="24" fill="white" transform="translate(10.5 10)"/>
</clipPath>
</defs>
</svg>
