<svg width="41" height="40" viewBox="0 0 41 40" fill="none" xmlns="http://www.w3.org/2000/svg">
<g id="bx-mouse">
<path id="Vector" d="M20.4585 36.6667H20.5002C26.9318 36.6667 32.1668 31.4333 32.1668 25V15C32.1668 8.59833 26.9552 3.37666 20.5318 3.33333H20.4318C14.0318 3.36999 8.8335 8.595 8.8335 15V25C8.8335 31.4333 14.0485 36.6667 20.4585 36.6667ZM12.1668 15C12.1699 12.7951 13.0454 10.6811 14.6022 9.11965C16.1589 7.55822 18.2703 6.67635 20.4752 6.66666C25.0835 6.67666 28.8335 10.415 28.8335 15V25C28.8335 29.595 25.0952 33.3333 20.5002 33.3333H20.4585C15.8102 33.3333 12.1668 29.6733 12.1668 25V15Z" fill="white"/>
<path id="Vector_2" d="M18.8335 10H22.1668V20H18.8335V10Z" fill="white"/>
</g>
</svg>
