<svg width="16" height="16" viewBox="0 0 16 16" fill="none" xmlns="http://www.w3.org/2000/svg">
<path d="M15.6973 15.7019H12.5167C12.5167 14.5007 12.5256 13.324 12.5137 12.148C12.5056 11.2853 12.4945 10.4218 12.4404 9.56135C12.3849 8.66308 11.9398 8.0588 10.9875 7.99438C10.0574 7.93143 9.33829 8.30466 9.1228 9.25699C8.98284 9.87756 8.97247 10.5352 8.96284 11.1772C8.94137 12.6464 8.95618 14.1164 8.95618 15.6634H5.8252V5.47063H8.73031C8.7629 5.84238 8.79252 6.18599 8.80215 6.30151C9.78113 5.92976 10.7549 5.31734 11.7769 5.22107C14.0807 5.0041 15.3951 6.24968 15.6462 8.58903C15.6995 9.08815 15.6921 9.59467 15.6936 10.0982C15.6987 11.9296 15.6958 13.7602 15.6958 15.7019H15.6973Z" fill="#084784"/>
<path d="M3.70227 15.7H0.616455V5.4917H3.70227V15.7Z" fill="#084784"/>
<path d="M3.98937 2.15884C3.98419 3.14227 3.10888 4.00796 2.121 4.00722C1.11462 4.00647 0.299288 3.17115 0.302991 2.14477C0.306694 1.11913 1.12795 0.292692 2.1373 0.297876C3.13109 0.30306 3.99456 1.17097 3.98937 2.15884Z" fill="#084784"/>
</svg>
