<svg width="34" height="34" viewBox="0 0 34 34" fill="none" xmlns="http://www.w3.org/2000/svg">
<rect x="34" y="34" width="34" height="34" transform="rotate(-180 34 34)" fill="white"/>
<path d="M16.87 21.5382C16.6241 21.2924 16.6241 20.8937 16.87 20.6478L20.2025 17.3152L16.87 13.9827C16.6241 13.7368 16.6241 13.3381 16.87 13.0923C17.1158 12.8464 17.5145 12.8464 17.7604 13.0923L21.5382 16.87C21.7841 17.1159 21.7841 17.5146 21.5382 17.7605L17.7604 21.5382C17.5145 21.7841 17.1158 21.7841 16.87 21.5382Z" fill="#989898"/>
<path d="M12.7772 21.5382C12.5313 21.2924 12.5313 20.8937 12.7772 20.6478L16.1097 17.3152L12.7772 13.9827C12.5313 13.7368 12.5313 13.3381 12.7772 13.0923C13.0231 12.8464 13.4217 12.8464 13.6676 13.0923L17.4454 16.87C17.6913 17.1159 17.6913 17.5146 17.4454 17.7605L13.6676 21.5382C13.4217 21.7841 13.0231 21.7841 12.7772 21.5382Z" fill="#989898"/>
</svg>
