<svg width="24" height="25" viewBox="0 0 24 25" fill="none" xmlns="http://www.w3.org/2000/svg">
<circle cx="12" cy="12.5" r="12" fill="#084784"/>
<path d="M15.8307 15.2161C15.5752 14.9714 15.3266 14.7197 15.085 14.4612C14.8821 14.2551 14.76 14.1051 14.76 14.1051L13.2327 13.3758C13.8441 12.6823 14.1816 11.7896 14.1818 10.8651C14.1818 8.76015 12.469 7.04688 10.3636 7.04688C8.25814 7.04688 6.54541 8.76015 6.54541 10.8651C6.54541 12.97 8.25814 14.6832 10.3636 14.6832C11.3252 14.6832 12.2018 14.3232 12.8743 13.7347L13.6036 15.262C13.6036 15.262 13.7536 15.3841 13.9598 15.5871C14.1709 15.7851 14.4485 16.0529 14.7147 16.3327L15.4554 17.092L15.7849 17.4443L16.9418 16.2874L16.5894 15.958C16.3827 15.7551 16.1067 15.4856 15.8307 15.2161ZM10.3636 13.5923C8.85977 13.5923 7.63632 12.3689 7.63632 10.8651C7.63632 9.36124 8.85977 8.13778 10.3636 8.13778C11.8674 8.13778 13.0909 9.36124 13.0909 10.8651C13.0909 12.3689 11.8674 13.5923 10.3636 13.5923Z" fill="white"/>
</svg>
