<svg width="26" height="26" viewBox="0 0 26 26" fill="none" xmlns="http://www.w3.org/2000/svg">
<path id="Union" fill-rule="evenodd" clip-rule="evenodd" d="M20.6959 18.6552C24.2127 14.2046 23.9166 7.72645 19.8075 3.61733C15.3792 -0.81092 8.19963 -0.81092 3.77138 3.61733C-0.656867 8.04558 -0.656867 15.2252 3.77138 19.6534C7.8805 23.7626 14.3587 24.0587 18.8093 20.5418L23.5807 25.3132C24.1017 25.8342 24.9463 25.8342 25.4673 25.3132C25.9883 24.7923 25.9883 23.9476 25.4673 23.4266L20.6959 18.6552ZM17.9209 5.50393C21.3072 8.89024 21.3072 14.3805 17.9209 17.7668C14.5346 21.1531 9.04429 21.1531 5.65798 17.7668C2.27167 14.3805 2.27167 8.89024 5.65798 5.50393C9.04429 2.11762 14.5346 2.11762 17.9209 5.50393Z" fill="#404040"/>
</svg>
