<svg width="25" height="25" viewBox="0 0 25 25" fill="none" xmlns="http://www.w3.org/2000/svg">
<g id="arrow-forward-outline" clip-path="url(#clip0_1083_10594)">
<g id="Layer 2">
<g id="arrow-forward">
<path id="Vector" d="M5.68359 13.2273H17.5436L13.9136 17.5873C13.8295 17.6884 13.7662 17.8051 13.7273 17.9307C13.6883 18.0563 13.6745 18.1883 13.6866 18.3192C13.711 18.5836 13.8394 18.8276 14.0436 18.9973C14.2478 19.167 14.5111 19.2487 14.7755 19.2243C15.0399 19.1999 15.2839 19.0715 15.4536 18.8673L20.4536 12.8673C20.4872 12.8196 20.5173 12.7694 20.5436 12.7173C20.5436 12.6673 20.5936 12.6373 20.6136 12.5873C20.6589 12.4726 20.6827 12.3506 20.6836 12.2273C20.6827 12.104 20.6589 11.982 20.6136 11.8673C20.6136 11.8173 20.5636 11.7873 20.5436 11.7373C20.5173 11.6852 20.4872 11.635 20.4536 11.5873L15.4536 5.5873C15.3596 5.47441 15.2418 5.38363 15.1087 5.32141C14.9757 5.25919 14.8305 5.22706 14.6836 5.2273C14.4499 5.22684 14.2235 5.30822 14.0436 5.4573C13.9423 5.54125 13.8586 5.64435 13.7973 5.76069C13.7359 5.87704 13.6981 6.00435 13.6861 6.13533C13.674 6.2663 13.6879 6.39837 13.7269 6.52398C13.766 6.64958 13.8294 6.76625 13.9136 6.8673L17.5436 11.2273H5.68359C5.41838 11.2273 5.16402 11.3327 4.97649 11.5202C4.78895 11.7077 4.68359 11.9621 4.68359 12.2273C4.68359 12.4925 4.78895 12.7469 4.97649 12.9344C5.16402 13.1219 5.41838 13.2273 5.68359 13.2273Z" fill="#3B4455"/>
</g>
</g>
</g>
<defs>
<clipPath id="clip0_1083_10594">
<rect width="24" height="24" fill="white" transform="translate(0.683594 0.227295)"/>
</clipPath>
</defs>
</svg>
