<svg width="44" height="44" viewBox="0 0 44 44" fill="none" xmlns="http://www.w3.org/2000/svg">
<rect width="44" height="44" rx="22" transform="matrix(-1 0 0 1 44 0)" fill="white"/>
<path d="M30.8693 29.8258H32.4347C33.3004 29.8258 34 29.1263 34 28.2605V17.8258C34 16.9618 33.2996 16.2605 32.4347 16.2605H11.5653C10.6996 16.2605 10 16.9601 10 17.8258V28.2605C10 29.1263 10.6996 29.8258 11.5653 29.8258H13.1307" stroke="#989898" stroke-width="1.5" stroke-linecap="round" stroke-linejoin="round"/>
<path d="M15.2178 16.2604V10H28.7822V16.2604" stroke="#989898" stroke-width="1.5" stroke-linecap="round" stroke-linejoin="round"/>
<path d="M28.7822 24.6089V29.8258V34H15.2178V29.8258V24.6089" stroke="#989898" stroke-width="1.5" stroke-linecap="round" stroke-linejoin="round"/>
<path d="M25.6525 27.7395H18.3477" stroke="#989898" stroke-width="1.5" stroke-linecap="round" stroke-linejoin="round"/>
<path d="M25.6525 30.8694H18.3477" stroke="#989898" stroke-width="1.5" stroke-linecap="round" stroke-linejoin="round"/>
<path d="M29.8259 24.6089H14.1743" stroke="#989898" stroke-width="1.5" stroke-linecap="round" stroke-linejoin="round"/>
<path d="M30.8694 19.3911H30.3477" stroke="#989898" stroke-width="1.5" stroke-linecap="round" stroke-linejoin="round"/>
<path d="M27.7396 19.3911H27.2178" stroke="#989898" stroke-width="1.5" stroke-linecap="round" stroke-linejoin="round"/>
</svg>
