<svg width="44" height="44" viewBox="0 0 44 44" fill="none" xmlns="http://www.w3.org/2000/svg">
<rect width="44" height="44" rx="22" transform="matrix(-1 0 0 1 44 0)" fill="white"/>
<path d="M30.2499 15.1038V31.6C30.2499 32.5113 29.5112 33.25 28.5999 33.25H15.4C14.4887 33.25 13.75 32.5113 13.75 31.6V12.4C13.75 11.4887 14.4887 10.75 15.4 10.75H25.5098L30.2499 15.1038Z" stroke="#989898" stroke-width="1.5"/>
<mask id="path-3-inside-1_1083_2896" fill="white">
<path d="M25 11H30V16H25.6C25.2686 16 25 15.7314 25 15.4V11Z"/>
</mask>
<path d="M25 11H30H25ZM30 17H25.6C24.7163 17 24 16.2837 24 15.4L26 15H30V17ZM25.6 17C24.7163 17 24 16.2837 24 15.4V11H26V15L25.6 17ZM30 11V16V11Z" fill="#989898" mask="url(#path-3-inside-1_1083_2896)"/>
<path d="M26.6231 25.3446C25.8121 25.3446 24.7973 25.4678 24.4653 25.5112C23.0911 24.261 22.7001 23.5504 22.6122 23.361C22.7313 23.0942 23.146 22.0808 23.2049 20.7793C23.234 20.1277 23.076 19.6408 22.7352 19.3321C22.3949 19.024 21.9831 19 21.865 19C21.451 19 20.7563 19.1824 20.7563 20.4039C20.7563 21.4638 21.3236 22.5884 21.4804 22.879C20.6543 24.9744 19.7674 26.4089 19.579 26.7039C16.2596 27.7927 16 28.8454 16 29.1437C16 29.6799 16.4383 30 17.1725 30C18.9562 30 20.584 27.3911 20.8531 26.9381C22.12 26.4984 23.8156 26.226 24.2467 26.161C25.4831 27.1871 26.9131 27.4608 27.5069 27.4608C27.9537 27.4608 29 27.4608 29 26.5237C29 25.6534 27.7196 25.3446 26.6231 25.3446ZM26.5371 25.9598C27.5006 25.9598 27.7552 26.2374 27.7552 26.3842C27.7552 26.4763 27.7151 26.7768 27.1987 26.7768C26.7356 26.7768 25.936 26.5436 25.1493 26.0377C25.4774 26.0001 25.9629 25.9598 26.5371 25.9598ZM21.8145 19.5964C21.9023 19.5964 21.9601 19.6209 22.0078 19.6786C22.2849 20.0135 22.0615 21.108 21.7895 21.9646C21.527 21.2301 21.33 20.1033 21.6072 19.7068C21.6614 19.6294 21.7233 19.5964 21.8145 19.5964ZM21.3465 26.1523C21.6954 25.5384 22.0863 24.6437 22.2993 24.1377C22.7254 24.7591 23.2986 25.336 23.6301 25.6488C22.5979 25.8383 21.817 26.0277 21.3465 26.1523ZM16.6929 29.2257C16.6699 29.2019 16.6665 29.1519 16.6838 29.0918C16.7202 28.9658 16.9977 28.3416 19.005 27.5594C18.7176 27.9538 18.2683 28.5173 17.7746 28.9383C17.4272 29.2217 17.1566 29.3654 16.9704 29.3654C16.9038 29.3654 16.8121 29.3495 16.6929 29.2257Z" fill="#989898"/>
</svg>
